
        <svg xmlns="http://www.w3.org/2000/svg" xmlns:xlink="http://www.w3.org/1999/xlink" version="1.1" width="3119.9333111209885" height="439.587615113055" viewBox="0 0 3119.9333111209885 439.587615113055">
			
			<g transform="scale(5.996665556049423) translate(10, 10)">
				<defs id="SvgjsDefs3023"><linearGradient id="SvgjsLinearGradient3030"><stop id="SvgjsStop3031" stop-color="#ef4136" offset="0"/><stop id="SvgjsStop3032" stop-color="#fbb040" offset="1"/></linearGradient><linearGradient id="SvgjsLinearGradient3033"><stop id="SvgjsStop3034" stop-color="#fbb040" offset="0"/><stop id="SvgjsStop3035" stop-color="#f9ed32" offset="1"/></linearGradient></defs><g id="SvgjsG3024" featureKey="nameLeftFeature-0" transform="matrix(0.7161808185798253,0,0,0.7161808185798253,-2.291779165858043,10.015381816865911)" fill="#000"><path d="M30.84 7.039999999999999 c0.36 0 1.16 0.12 1.16 1.36 l0 3.12 c0 1.32 -0.8 1.44 -1.16 1.44 l-10.28 0 l0 25.68 c0 1.24 -0.76 1.36 -1.12 1.36 l-3.68 0 c-0.32 0 -1.12 -0.12 -1.12 -1.36 l0 -25.68 l-10.28 0 c-0.36 0 -1.16 -0.12 -1.16 -1.44 l0 -3.12 c0 -1.24 0.8 -1.36 1.16 -1.36 l26.48 0 z M68.769 9.96 c0.8 1 1.36 2.32 1.72 3.92 c0.32 1.56 0.52 3.48 0.52 5.68 l0 7.92 c0 2.24 -0.2 4.16 -0.52 5.72 c-0.36 1.6 -0.92 2.92 -1.72 3.96 c-0.8 1 -1.84 1.76 -3.12 2.2 c-1.24 0.44 -2.76 0.68 -4.52 0.68 l-9.76 0 c-1.76 0 -3.28 -0.24 -4.48 -0.68 c-1.28 -0.44 -2.32 -1.2 -3.12 -2.24 c-0.76 -1 -1.36 -2.32 -1.72 -3.92 c-0.36 -1.56 -0.52 -3.48 -0.52 -5.72 l0 -7.92 c0 -2.24 0.16 -4.12 0.52 -5.68 c0.36 -1.6 0.96 -2.92 1.72 -3.92 c0.8 -1 1.84 -1.76 3.12 -2.24 c1.24 -0.44 2.72 -0.68 4.48 -0.68 l9.76 0 c1.76 0 3.28 0.24 4.52 0.68 c1.28 0.48 2.32 1.24 3.12 2.24 z M65.049 18.88 c0 -1.16 -0.04 -2.16 -0.2 -2.96 c-0.12 -0.76 -0.36 -1.36 -0.68 -1.8 c-0.28 -0.4 -0.68 -0.68 -1.2 -0.88 c-0.52 -0.16 -1.2 -0.28 -2.04 -0.28 l-9.36 0 c-0.84 0 -1.52 0.12 -2.04 0.28 c-0.52 0.2 -0.92 0.48 -1.2 0.88 c-0.32 0.44 -0.52 1.04 -0.68 1.8 c-0.12 0.8 -0.2 1.8 -0.2 2.96 l0 9.32 c0 1.16 0.08 2.16 0.2 2.96 c0.16 0.72 0.36 1.36 0.68 1.76 c0.28 0.44 0.68 0.72 1.2 0.88 c0.52 0.2 1.2 0.28 2.04 0.28 l9.36 0 c0.84 0 1.52 -0.08 2.04 -0.28 c0.52 -0.16 0.92 -0.44 1.2 -0.88 c0.32 -0.4 0.56 -1.04 0.68 -1.76 c0.16 -0.8 0.2 -1.8 0.2 -2.96 l0 -9.32 z M108.57799999999999 38.28 c0.16 0.24 0.2 0.56 0.16 0.96 c-0.08 0.48 -0.44 0.8 -0.92 0.8 l-4.4 0 c-0.36 0 -0.64 -0.08 -0.84 -0.24 c-0.16 -0.12 -0.28 -0.32 -0.44 -0.56 l-7.24 -12.84 l-8.44 0 l0 12.24 c0 1.24 -0.76 1.4 -1.12 1.4 l-3.64 0 c-0.36 0 -1.16 -0.16 -1.16 -1.4 l0 -16.8 c0 -1.24 0.8 -1.36 1.16 -1.36 l17.4 0 c1.04 0 1.72 -0.28 2.12 -0.88 c0.44 -0.6 0.64 -1.56 0.64 -2.88 s-0.2 -2.28 -0.64 -2.88 c-0.4 -0.6 -1.08 -0.88 -2.12 -0.88 l-17.4 0 c-0.36 0 -1.16 -0.12 -1.16 -1.36 l0 -3.16 c0 -1.28 0.8 -1.4 1.16 -1.4 l18.44 0 c2.72 0 4.72 0.84 5.92 2.56 c1.08 1.64 1.68 3.96 1.76 7 l0 0.24 c-0.08 3.08 -0.68 5.4 -1.76 7 c-1 1.36 -2.52 2.2 -4.48 2.44 z M146.347 38.28 c0.16 0.24 0.2 0.56 0.16 0.96 c-0.08 0.48 -0.44 0.8 -0.92 0.8 l-4.4 0 c-0.36 0 -0.64 -0.08 -0.84 -0.24 c-0.16 -0.12 -0.28 -0.32 -0.44 -0.56 l-7.24 -12.84 l-8.44 0 l0 12.24 c0 1.24 -0.76 1.4 -1.12 1.4 l-3.64 0 c-0.36 0 -1.16 -0.16 -1.16 -1.4 l0 -16.8 c0 -1.24 0.8 -1.36 1.16 -1.36 l17.4 0 c1.04 0 1.72 -0.28 2.12 -0.88 c0.44 -0.6 0.64 -1.56 0.64 -2.88 s-0.2 -2.28 -0.64 -2.88 c-0.4 -0.6 -1.08 -0.88 -2.12 -0.88 l-17.4 0 c-0.36 0 -1.16 -0.12 -1.16 -1.36 l0 -3.16 c0 -1.28 0.8 -1.4 1.16 -1.4 l18.44 0 c2.72 0 4.72 0.84 5.92 2.56 c1.08 1.64 1.68 3.96 1.76 7 l0 0.24 c-0.08 3.08 -0.68 5.4 -1.76 7 c-1 1.36 -2.52 2.2 -4.48 2.44 z M180.116 32.84 c0.36 0 1.16 0.12 1.16 1.36 l0 4.4 c0 1.24 -0.8 1.36 -1.16 1.36 l-14.2 0 c-1.76 0 -3.24 -0.2 -4.48 -0.68 c-1.28 -0.44 -2.32 -1.16 -3.12 -2.2 c-0.76 -1 -1.36 -2.32 -1.72 -3.92 c-0.28 -1.32 -0.48 -2.92 -0.52 -4.8 l0 -0.2 l0.08 -5.04 c0.08 -0.36 0.24 -0.68 0.44 -1 c0.56 -1 1.56 -1.6 2.72 -1.68 l20.64 -0.04 c0.32 0 1.12 0.12 1.12 1.36 l0 3.16 c0 1.24 -0.8 1.4 -1.12 1.4 l-17.88 0 c-0.04 0 -0.08 2.88 -0.08 2.88 l0.08 0.68 c0.12 0.76 0.36 1.36 0.68 1.8 c0.32 0.4 0.68 0.68 1.2 0.88 c0.56 0.16 1.24 0.28 2.08 0.28 l14.08 0 z M180.156 6.960000000000001 c0.32 0 1.12 0.16 1.12 1.4 l0 3.16 c0 1.24 -0.8 1.4 -1.12 1.4 l-23 -0.04 c-0.32 0 -1.08 -0.12 -1.08 -1.36 l0 -3.12 c0 -1.28 0.76 -1.44 1.08 -1.44 l23 0 z M210.12500000000003 20.32 c2.08 0 3.68 0.76 4.76 2.2 c1.04 1.44 1.56 3.48 1.56 6.08 l0 3.52 c0 2.32 -0.52 4.2 -1.52 5.64 c-1.04 1.48 -2.68 2.24 -4.88 2.24 l-18.04 0 c-0.36 0 -1.16 -0.12 -1.16 -1.36 l0 -3.2 c0 -1.24 0.8 -1.36 1.16 -1.36 l17.08 0 c0.68 0 0.92 -0.28 1.08 -0.52 c0.24 -0.4 0.36 -0.96 0.36 -1.68 l0 -3.44 c0 -1.96 -0.8 -2.2 -1.4 -2.2 l-12 0 c-1.68 0 -3.52 -0.24 -4.76 -1.88 c-1 -1.4 -1.56 -3.64 -1.56 -6.4 l0 -3.04 c0 -2.32 0.52 -4.24 1.56 -5.68 c1.04 -1.48 2.64 -2.2 4.84 -2.2 l17.24 0 c0.32 0 1.12 0.12 1.12 1.36 l0 3.2 c0 1.24 -0.8 1.36 -1.12 1.36 l-16.28 0 c-0.68 0 -0.92 0.28 -1.08 0.52 c-0.2 0.4 -0.32 0.96 -0.32 1.68 l0 2.96 c0 1.96 0.76 2.2 1.36 2.2 l12 0 z"/></g><g id="SvgjsG3025" featureKey="inlineSymbolFeature-0" transform="matrix(-0.23586434193570993,0,0,0.23586434193570993,318.1509217856427,0)" fill="#000"><g xmlns="http://www.w3.org/2000/svg">    <polygon points="184.8,138.4 180.3,143.9 174.8,138.9 139.6,106.3 10.4,226 0,226 139.6,96.6  "/>    <polygon points="361.2,91.7 356.5,95 350.5,87.6 350.3,87.7 287.8,9.7 181.6,142.3 180.3,143.9 175.9,139.9 287.8,0  "/>    <polygon points="615.4,226 603.1,226 396.9,63.4 360,92.5 356.5,95 351.9,89.3 396.9,53.8  "/>    <polygon points="129,188.2 113,173.9 95.9,189.1 95.3,173.4 83.7,189 83.5,179.5 62.5,188.9 139.1,114 139.1,114 139.1,169.2    139.1,169.1  "/>    <polygon points="268.5,172.4 252.9,144.8 243.3,161.8 221,131.4 198.6,161.8 183.5,147.8 287.4,19.7 287.4,19.7 287.4,130.7  "/>    <polygon points="391.7,139 359.3,98.9 396.9,68.9 397,69 397,121.6 396.9,121.5  "/></g></g><g id="SvgjsG3026" featureKey="nameRightFeature-0" transform="matrix(0.7084706446686955,0,0,0.7084706446686955,318.9499328787451,10.324093812751634)" fill="#000"><path d="M51.329 7.039999999999999 c0.32 0 1.12 0.16 1.12 1.4 l0 3.08 c0 1.28 -0.8 1.44 -1.12 1.44 l-14.36 0 c-0.84 0 -1.56 0.08 -2.08 0.28 c-0.52 0.16 -0.88 0.44 -1.2 0.88 s-0.52 1 -0.68 1.76 c-0.12 0.76 -0.2 1.76 -0.2 2.96 l0 9.32 c0 1.2 0.08 2.2 0.2 3 c0.16 0.76 0.36 1.36 0.68 1.76 c0.32 0.44 0.68 0.72 1.2 0.88 c0.52 0.2 1.24 0.28 2.08 0.28 l14.36 0 c0.32 0 1.12 0.16 1.12 1.4 l0 3.16 c0 1.24 -0.8 1.4 -1.12 1.4 l-14.56 0 c-1.76 0 -3.28 -0.24 -4.52 -0.68 s-2.28 -1.2 -3.08 -2.2 c-0.8 -1.04 -1.4 -2.36 -1.76 -3.92 c-0.36 -1.6 -0.52 -3.52 -0.52 -5.76 l0 -7.92 c0 -2.2 0.16 -4.12 0.52 -5.68 c0.36 -1.6 0.96 -2.92 1.76 -3.92 c0.76 -1 1.8 -1.76 3.08 -2.24 c1.24 -0.44 2.76 -0.68 4.52 -0.68 l14.56 0 z M83.418 10.760000000000002 l11.24 27.72 c0.16 0.36 0.2 0.72 0.12 0.96 c-0.08 0.2 -0.24 0.6 -0.88 0.6 l-4.28 0 c-0.56 0 -0.96 -0.32 -1.16 -0.88 l-9.92 -24.76 l-0.04 -0.08 l-0.16 0 s-0.04 0.04 -0.08 0.12 l-5.12 12.96 l4.96 0 c0.52 0 0.96 0.32 1.16 0.8 l1.44 3.56 c0.12 0.4 0.08 0.84 -0.16 1.16 c-0.2 0.36 -0.6 0.56 -1.04 0.56 l-8.76 0 l-2.28 5.72 c-0.2 0.52 -0.6 0.84 -1.12 0.84 l-4.4 0 c-0.64 0 -0.84 -0.36 -0.88 -0.6 c-0.08 -0.24 -0.04 -0.6 0.08 -0.96 l11.16 -27.72 c0.56 -1.44 1.16 -2.4 1.76 -2.92 c0.16 -0.12 0.36 -0.28 0.6 -0.4 c0.8 -0.56 1.76 -0.84 2.76 -0.84 c2.2 0 4.12 1.48 4.76 3.56 z M123.987 7.039999999999999 c2.72 0 4.68 0.84 5.88 2.56 c1.16 1.6 1.72 3.92 1.76 7 c0 3.16 -0.56 5.56 -1.76 7.24 s-3.16 2.52 -5.88 2.52 l-13.68 0.04 l0 12.24 c0 1.24 -0.8 1.4 -1.12 1.4 l-3.68 0 c-0.32 0 -1.12 -0.16 -1.12 -1.4 l0 -16.8 c0 -1.24 0.8 -1.36 1.12 -1.36 l17.44 0 c1 0 1.72 -0.28 2.12 -0.88 c0.44 -0.6 0.64 -1.56 0.64 -2.88 s-0.2 -2.28 -0.64 -2.88 c-0.4 -0.6 -1.12 -0.88 -2.12 -0.88 l-17.44 0 c-0.32 0 -1.12 -0.12 -1.12 -1.36 l0 -3.16 c0 -1.28 0.8 -1.4 1.12 -1.4 l18.48 0 z M145.956 7.039999999999999 c0.32 0 1.12 0.16 1.12 1.4 l0 30.2 c0 1.24 -0.8 1.4 -1.12 1.4 l-3.68 0 c-0.32 0 -1.12 -0.16 -1.12 -1.4 l0 -30.2 c0 -1.24 0.8 -1.4 1.12 -1.4 l3.68 0 z M184.245 7.039999999999999 c0.36 0 1.16 0.12 1.16 1.36 l0 3.12 c0 1.32 -0.8 1.44 -1.16 1.44 l-10.28 0 l0 25.68 c0 1.24 -0.76 1.36 -1.12 1.36 l-3.68 0 c-0.32 0 -1.12 -0.12 -1.12 -1.36 l0 -25.68 l-10.28 0 c-0.36 0 -1.16 -0.12 -1.16 -1.44 l0 -3.12 c0 -1.24 0.8 -1.36 1.16 -1.36 l26.48 0 z M210.774 10.760000000000002 l11.24 27.72 c0.16 0.36 0.2 0.72 0.12 0.96 c-0.08 0.2 -0.24 0.6 -0.88 0.6 l-4.28 0 c-0.56 0 -0.96 -0.32 -1.16 -0.88 l-9.92 -24.76 l-0.04 -0.08 l-0.16 0 s-0.04 0.04 -0.08 0.12 l-5.12 12.96 l4.96 0 c0.52 0 0.96 0.32 1.16 0.8 l1.44 3.56 c0.12 0.4 0.08 0.84 -0.16 1.16 c-0.2 0.36 -0.6 0.56 -1.04 0.56 l-8.76 0 l-2.28 5.72 c-0.2 0.52 -0.6 0.84 -1.12 0.84 l-4.4 0 c-0.64 0 -0.84 -0.36 -0.88 -0.6 c-0.08 -0.24 -0.04 -0.6 0.08 -0.96 l11.16 -27.72 c0.56 -1.44 1.16 -2.4 1.76 -2.92 c0.16 -0.12 0.36 -0.28 0.6 -0.4 c0.8 -0.56 1.76 -0.84 2.76 -0.84 c2.2 0 4.12 1.48 4.76 3.56 z M254.823 34.08 c0.36 0 1.12 0.16 1.12 1.4 l0 3.16 c0 1.24 -0.76 1.4 -1.12 1.4 l-13.2 0 c-1.76 0 -3.28 -0.24 -4.48 -0.68 c-1.28 -0.44 -2.32 -1.2 -3.12 -2.24 c-0.8 -1 -1.36 -2.32 -1.72 -3.92 c-0.36 -1.56 -0.56 -3.48 -0.56 -5.72 l0 -19.04 c0 -1.28 0.8 -1.4 1.16 -1.4 l3.68 0 c0.32 0 1.12 0.12 1.12 1.4 l0 19.72 c0 1.2 0.04 2.2 0.2 3 c0.12 0.72 0.36 1.32 0.68 1.76 c0.28 0.44 0.68 0.72 1.16 0.88 c0.56 0.2 1.24 0.28 2.08 0.28 l13 0 z"/></g>
			</g>
		</svg>
	