
        <svg xmlns="http://www.w3.org/2000/svg" xmlns:xlink="http://www.w3.org/1999/xlink" version="1.1" width="3140.1459854014597" 
        height="3102.781084604965" viewBox="0 0 3140.1459854014597 3102.781084604965">
			<rect fill="#F5793B" width="3140.1459854014597" height="3102.781084604965"/>
			<g transform="scale(7.007299270072993) translate(10, 10)">
				<defs id="SvgjsDefs1831"><linearGradient id="SvgjsLinearGradient1840"><stop id="SvgjsStop1841" stop-color="#ef4136" offset="0"></stop><stop id="SvgjsStop1842" stop-color="#fbb040" offset="1"></stop></linearGradient><linearGradient id="SvgjsLinearGradient1843"><stop id="SvgjsStop1844" stop-color="#fbb040" offset="0"></stop><stop id="SvgjsStop1845" stop-color="#f9ed32" offset="1"></stop></linearGradient></defs><g id="SvgjsG1832" featureKey="rootContainer" transform="matrix(3.9661611993702226,0,0,3.9661611993702226,-0.22034899839181377,0)" fill="#1c4271"><g xmlns="http://www.w3.org/2000/svg"><path d="M19.8 15.3h.5l-.4-.2zm.5.1zm.8-.7c0 .1 0 .1.1.1l.4-.3c-.2-.1-.3-.1-.5.2zm.4-.2zm-4.1 2.3zm-.2.6l.3-.2c.1-.1.1-.2.1-.2h-.2l-.2.4c-.1-.1-.1 0 0 0zm2.2-2.9h-.1l-.2.2h.3zm-2.1 2.4l.6-.5c.1-.1.1-.2.1-.3h-.3l-1.2 1.1-.2.4.7-.6zm-1.1.8z"></path><path d="M9.7 25v-.2a1.7 1.7 0 0 1 .7-1.1l.9-.6.5-.6.7-.7.4-.4.4-.3a1.9 1.9 0 0 0 .8-.9l.4-.5a5.9 5.9 0 0 0 1-1.3l.2-.3.3-.2-.2-.3.4-.5c.8-.6 1.4-1.4 2.2-2l.3-.3a1.4 1.4 0 0 1 .5-.6l.8-.4h.4a1.4 1.4 0 0 0 .7-.6V13a3.5 3.5 0 0 1 1.3-1.4l.8-.5.2-.2.4-.4 1-.5h.2l-1.1.4-1.4 1c-.6.5-1.4.6-1.8 1.4h.3c-.7.2-1.4.5-1.7 1.2s-.8.6-1.2.9a.4.4 0 0 0-.3.4c-.8-.1-1.1.5-1.5.9v.8a3.9 3.9 0 0 0-1.6 1.4c-1.6.1-1.6 2.1-3 2.5h-.1a.2.2 0 0 0 0 .2c-.3 0-.5.2-.4.5l-.2.5c-.7.4-.6 1.1-1 1.7-.8.5-1.1 1.5-1.7 2.2l.3.5.2-.2a11.6 11.6 0 0 1 .9-1.3zM53.9 3.3l.6.2h.2a2.2 2.2 0 0 0 1.4.2 4.1 4.1 0 0 1 1.9.1h1.2a1.4 1.4 0 0 1 1.2.3.1.1 0 0 1 0 .1H60a.1.1 0 0 0 0 .1h.7a1.8 1.8 0 0 1 1.3 0c.2 0 .1.1.2.2l.5.2h-.2c-.2-.4-.5-.4-.8-.4a9.7 9.7 0 0 0-4.3-.9h-.8A9.8 9.8 0 0 0 53 3h.2zm7.3 3.1zM50.3 4.7zm10.9 1.7h.2-.2zM19 14.7zm32.1-10zm17.6 2.2a.9.9 0 0 0 1 .2h.6a3.1 3.1 0 0 0-1.8-.7l-.7-.2.5.3zm-3.4-1.3c0 .1.1.2.2.3h.2l.5-.3a4.2 4.2 0 0 0-1.7-.6l.7.4zm7.4 2.7l.8.5c-.2-.3-.4-.5-.8-.5z"></path><path d="M99 76.1l.6-1.6.6-1.5c.2-.5.6-1.8.8-2.6a1.7 1.7 0 0 1 .3-.7h.1v-1.1c.5-.1.4-.6.5-.9l.8-4.7a12.7 12.7 0 0 0 0-6.2 1.9 1.9 0 0 0-.5-1.6v-4.3c-.3-.9.3-1.9-.4-2.7L101 45a.4.4 0 0 0 0-.2l-.2-.6a.5.5 0 0 1 0-.4h.1c.3 0 .3-.5.3-.9a3 3 0 0 0-.4-1.1l-.3-.4a1.1 1.1 0 0 1-.2-.7 6.7 6.7 0 0 0-.2-2v-.6c-.2-.7-.4-1.5-.6-2.2l-.2-.5a2.5 2.5 0 0 1-.4-1.1 2.5 2.5 0 0 0-.3-.8l-.6-1a.8.8 0 0 0-.6-.2h-.1V32h-.2v-.8H97V31a.4.4 0 0 0 0-.1v-.2c.1-.2.1-.3-.1-.5a1.8 1.8 0 0 1-.4-.6l-.2-.6a2.9 2.9 0 0 0-.7-1.2 2.2 2.2 0 0 1-.5-.7l-.7-1.6a4.3 4.3 0 0 0-.6-1l-.6-.8a2.4 2.4 0 0 1-.4-.8l-.2-.3a.6.6 0 0 1-.1-.5.5.5 0 0 0-.2-.4l-.4-.3v.2c.1.2 0 .3-.1.3h-.2l.3 1 .3.5.7.9h-.1l-.2-.2-.2-.2a1.3 1.3 0 0 0-1.2-1.1v-.7c-.3-1.2-1.6-1.3-2.2-2.1a1.5 1.5 0 0 0-1.1-.9l-.8-.9a11.3 11.3 0 0 0-3.1-3l-.8-.6-.4-.3c-.7-.7-1-1.8-2.2-1.8l-.8-.5-.9-.7a2.2 2.2 0 0 0-1.8-1.3 5.1 5.1 0 0 0-2.3-1.2l.2.2.5.4 1.3.7a8.5 8.5 0 0 1 2.1 1.6 6.8 6.8 0 0 0 1.5 1.1l.6.5c.1.1.2.2.1.3H81l-.9-.3a5.6 5.6 0 0 1-2-.8l-1.2-.6-1.3-.7h-.2c-.3-.1-.4-.4-.8-.5l-.8-.2-2.5-.5a2.6 2.6 0 0 1-.9-.7 1.7 1.7 0 0 1-.9-.3l-1-.4a18.1 18.1 0 0 1-2.8-.8l-.6-.2-1-.3h-.5l-.2-.3v-.1h-1.6l-.6-.5-.4.2-.4.2h-.2l-.9-.5c-.6.6-1.1-.2-1.6-.1l-1-.3a1.2 1.2 0 0 1-1.2 0h-1.2a.6.6 0 0 1-.5-.6l.3-.2h.6a.7.7 0 0 1 .1.3c0 .2.2.2.5.2h.2l-.4-.6a1.1 1.1 0 0 0-1-.2l-1 .3H53c.3.2.2.3.2.5h-1.6l-.4-.2-.8-.4h-.1l-.7-.2h-2.3l.4-.2.8-.2h.3l1.7-.3 1.1-.2.6-.2h-1.1a8.4 8.4 0 0 0-3.4 0h-1.3L43 3.6c-1.4.1-2.8 0-3.9 1.2-2.5-.4-4.7.7-6.9 1.8l-2.2.9a6.7 6.7 0 0 0-3.7 1.8h.3l.5-.3.8-.5 1.3-.6 1-.2a6 6 0 0 1 2-.9l.9-.3h.2c.1.2.5 0 .7 0h.2c.1 0 .1.1 0 .1l-.6.4 1-.3.8-.2-1.3.7-1.3.4a1 1 0 0 0-.6.5l-.3.5h.3l.4-.2a1.4 1.4 0 0 1 .9-.6l1.5-.5h.5a.1.1 0 0 1 .1.2c-.2.2-.6.3-.8.5h.2l-3.2.9-3.8 1.6a5.2 5.2 0 0 1-2.3 1.2 6.6 6.6 0 0 1-1.7 1.1l-.8.2a1.5 1.5 0 0 1-1.3.9l-.3.5a3.7 3.7 0 0 1-1.2 1.1h-.1v-.1l-.2.2-.2.2-1 .2h-.5l-.4.5c-.1.1-.1.2 0 .2h.1c-.6.6-1 1.4-1.8 1.7L15 19.9c-.6 1.2-1.8 1.6-2.6 2.6s-1.4 3.9-3.9 4.3l-.2-.3-.2.5a2.7 2.7 0 0 1-.4.8 16.9 16.9 0 0 0-1.2 2.1.8.8 0 0 0-.1.5 1.4 1.4 0 0 1-.2.8l-.5 1.1h.2c.3 0 .3.3.4.6l.8-1.1a2.2 2.2 0 0 1 .6-.7 2 2 0 0 0 .9-.9l.3-.3.4-.4.6-1.1h.2c.1.1.1.1.2 0l.2-.4h.5v.8l.5-.5a.5.5 0 0 0 0-.5.4.4 0 0 1 .1-.3 1.5 1.5 0 0 0 .3-.5 1.3 1.3 0 0 1 .8-.9l.3-.2.3-.3a2.4 2.4 0 0 0 .8-1l-.2-.3c0-.1.1-.3.2-.4h.5l.6-.8.6-.3h.2a48.8 48.8 0 0 0-5.5 7.2h-.1.1a48.4 48.4 0 0 0-5.3 11.2h-.5l-.5-.4c-.2-.2-.1-.7-.4-.9h.1c.3-.5-.1-1.2.3-1.7s.1-1.4-.9-1.2-1.5.5-1.3 1.5-1 1.8-1.1 2.9-.5.5-.3.9v3.9c.1.8-.5 1.8.8 2.1l1.3.9c.1.5-.5 1.6.9 1.3a49.2 49.2 0 0 0-.3 5c0 1.1.1 2.2.1 3.3v-.4c-.1-.4-.1-.8-.2-1.3l-.3.3v-.2h-.5c0 .5-.1.8-.4.9a.9.9 0 0 0-.1.5c0 .1.1.3.2.2s.4.2.7.4-.2.3-.4.2-.2.1-.2.3v.3l.5 1.5c0 .3-.1.6-.1.9a1.7 1.7 0 0 0 .2.8h-.3v-.3l-.7-.2v-.6a1.5 1.5 0 0 0 0-.5 14.6 14.6 0 0 1-.3-1.8 16.6 16.6 0 0 1-.2-3.5.9.9 0 0 1 .1-.5v.2a2.9 2.9 0 0 1 .1.5.8.8 0 0 0 .1.4c.1.2.2.4.4.4s.1-.1.1-.2a2.1 2.1 0 0 0-.1-.5 4.2 4.2 0 0 1-.3-1.3 1.5 1.5 0 0 0-.3-.7 1.6 1.6 0 0 1-.2-.9v-.8c0-.3.1-.6.1-.9a.5.5 0 0 0-.1-.4h-.1c-.8.4-.7.2-1 1.6V55c0 .7-.1 1.4 0 2.1a10.8 10.8 0 0 0 .2 2.3 1.8 1.8 0 0 1 0 .5 3.1 3.1 0 0 0 .1.9 5.9 5.9 0 0 1 .1 1.3 3.9 3.9 0 0 0 .2 1.7 1.2 1.2 0 0 1 0 .4 2.1 2.1 0 0 0 .1.8 4.9 4.9 0 0 1 .2.9 14 14 0 0 0 .5 2.2 5 5 0 0 1 .2 1 1.7 1.7 0 0 0 .3.7 2.9 2.9 0 0 1 .5 1.2 8.5 8.5 0 0 0 .3 1l.4 1.4a5.4 5.4 0 0 0 .6 1.5 8.5 8.5 0 0 1 .8 2.1l.2.5a2.1 2.1 0 0 1 .5 1 2.1 2.1 0 0 0 .4.8 1 1 0 0 1 .2.5c.1.3.2.4.4.3h.1v.9l.5 1 .5 1 1.1 1.2.4.4c.3.3.7.5.9 1l.4.3a.7.7 0 0 1 .3.5l.2.7a3.3 3.3 0 0 0 .6.9l.4.2h.3a.2.2 0 0 1 .1.3 2.5 2.5 0 0 0 0 .5.9.9 0 0 0 .4.5h.2c.4-.1.8.2 1.2.7h.1c0-.1.1-.1 0-.2v-.2c0-.1.1-.2.2-.1a.7.7 0 0 1 .3.6v.2a4.3 4.3 0 0 0 .4 1.2c.5.3.5.3.5.1s0-.2.2-.2h.4l.2.3.8.5c.7.8 1.8.7 2.6 1.2l1.7 1.7h.2a2.9 2.9 0 0 0 1.6 1.6 1.3 1.3 0 0 0 1 .6c0 .5.6.6 1.1.7a1.2 1.2 0 0 0 .8.4h.2a1.7 1.7 0 0 0 1.5.5l.9.8 2.4.9v.2c.5 1.1 1.7.7 2.5 1l1.1.4h.4c1.2.3 2.4.9 3.7.5a.7.7 0 0 0 0 .4c1.1.7 2.4 0 3.6.4a2.9 2.9 0 0 0 1.7.1h.1l.8.2h.3l.9.2h.3a.5.5 0 0 1 .5 0 7.9 7.9 0 0 0 1.5.4h.6a.7.7 0 0 1 .7 0h3.9a5 5 0 0 0 1.6-.1h1l.5-.2H60l.6-.2.5-.3h2.2v.6H62l-1.2.2c-.4.1-.7 0-1 .1a2.4 2.4 0 0 1-1 .2l-1.3.3h-.4a3.1 3.1 0 0 0-1.5.1h-1.8a1.1 1.1 0 0 1-.9 0h-4.5a1.3 1.3 0 0 0-1.1.3H47l-.3-.2v-.3h-1.2a4.1 4.1 0 0 0-1.3-.3h-2.5l-.7-.2-.5-.2-2.1-.4h-.5l-.5-.2-2.1-.7-1.4-.4h-2.2c-.1 0-.1.1-.1.2h.2c1.3.5 2.6.9 3.9 1.5h.3l.9.2 1.4.4h1.3l.6.2.7.3 1.7.3 1.1.2 1.1.2h.8l.8.2h3.1l1 .2h2.3l1-.2H56c.4 0 .6-.1.7-.3h1a1 1 0 0 0 .8-.3c-.1.1 0 .1.1.2h.4v-.2c0-.1 0-.1.2-.2s.6-.1.7.1h.4l.3-.2c.2 0 .2 0 .2.1h.7l.5-.2.8-.4c.1.3.4.4 1.3.2l1.3-.4h1.2c.9-.1 2 0 2.7-.7h.2l.4-.3 1.1-.3a6.1 6.1 0 0 0 2-.8l.4-.2h.1l.9-.6.4-.2.5-.2h.4c.4-.1.4-.1.5-.4s0-.1-.2-.1h-.1l.4-.5h.2c.3-.1.5-.2.7-.1h.2a1.3 1.3 0 0 0 .9-.9c.3-.4 1.1-.2 1.3-.8l4.3-3.1c1.1-.1 1.4-1.1 2.2-1.7s2.3-1.1 3-2.2l.9-.4h.1a1 1 0 0 0 1.2-.7v.4c.8-.4 1.8.3 2.6-.5s0-2.7 1-3.8l.7-.5a12.1 12.1 0 0 0 1.5-4.2l.2-.2c0-.3 0-.7.4-.9a.9.9 0 0 0 .2-1.2h-.2a.3.3 0 0 0 0-.3c.7 0 .8-.7 1.2-1V77a.5.5 0 0 1 0-.2 3.8 3.8 0 0 0 .1-.7zM5.9 32.2z"></path><path d="M26.4 9.3l-.3.2-.4.3.5-.2zm6.1-2h.1l.3-.2h-.4zm-2.6 1l-.1.1h.1v-.1zm-1.5 1.4zm1.3-.2zm-6.3 3.1zM9.2 26.2l-.4.4H9a.4.4 0 0 0 .2-.4zm3-3.5a2.1 2.1 0 0 0 .3-.6 1.5 1.5 0 0 0-.5.5c-.1.1-.1.2 0 .2zM11 24.2V24c-.2 0-.5.3-.8.3v.2c.3.3.4.2.8-.3zm3 66.2zM73.9 9.2h.1l-.5-.3zm-2.5-1.4c.5-.1.8.4 1.2.5h.1l-.3-.2-1-.5-1.1-.5.3.2zM52.8 3.1zm11.7 2h-.1l-1.2-.2h.5zm2 .7l1.3.4a3.3 3.3 0 0 0-1.3-.4zm-9 0a1 1 0 0 0 .2-.5h-.5l-.3.3.4.3zm9 1.6zM49.9 4.2zm2.9.7zM48.5 4zm13.8 2.1a.5.5 0 0 0 0 .1zm44.8 52.3h-.3V58h.3c.1 0 .2-.3.1-.4s-.1-.7-.3-.8a.3.3 0 0 1-.2-.3l.2-.4a.4.4 0 0 0 0-.2h-.2l-.2-.3c-.1.3-.2.6-.4.7a.5.5 0 0 0 0 .2c0 .1 0 .2-.1.2h-.1a1.1 1.1 0 0 1-.1.3 2.3 2.3 0 0 0-.4.9.4.4 0 0 0 .1.4h.1a1.7 1.7 0 0 0-.1.8v.4a1.8 1.8 0 0 1-.1.5h-.1l-.4.7v.6a1.5 1.5 0 0 1-.3 1.1h-.2l-.2-.2a.9.9 0 0 1-.1-.8 6.5 6.5 0 0 0 .1-1.7c0-.1-.1-.2-.1-.2a.5.5 0 0 0-.1.3v.6c0 .2-.1.6-.3.7s-.1.2-.1.3l-.2.6.3.5c-.2.2-.4.1-.5-.1v1h.3v.4a4.2 4.2 0 0 0-.3 1.4 3.3 3.3 0 0 0 0 .4 4 4 0 0 1-.2 1.3 2 2 0 0 0 0 .6l-.3.7a3.2 3.2 0 0 1-.3.7l-.3.6-.9 2.7c.3.9-.4 1.5-.8 2.1a2.7 2.7 0 0 1-.8 2.3v.4c0 .1.1.2.3.1l.4-.3.2-.4h.2c.1.1.2.1.4-.1h.2a.5.5 0 0 1 .1.6 2.9 2.9 0 0 0-.1.8c0 .1 0 .2.1.2h.2c.1.1.2 0 .3-.3l.2-.5h.3c.4-.1.4-.1.6-.6l.5-.9.3-.6.4-1a1.6 1.6 0 0 1 .3-1 .6.6 0 0 0 .1-.6c0-.2 0-.3.2-.6l.3-.4.5-1a4.7 4.7 0 0 1 .2-.9 3 3 0 0 0 .3-1.3 3.8 3.8 0 0 1 .3-.9v-.5c-.1-.2-.1-.2 0-.6s.1-.2.2-.2a.4.4 0 0 1 .1.3l.2-.5a2.3 2.3 0 0 0 .2-.9v-.3c0-.1 0-.3-.1-.3v.4c-.2 0-.3.2-.5.3a6.4 6.4 0 0 0 .1-.8l.4-.2a.7.7 0 0 0 .2-.6 1.4 1.4 0 0 1 0-.3 4.8 4.8 0 0 0 .2-1.4v-.2l.3-1h.1a.3.3 0 0 0 .1-.3h-.1a.9.9 0 0 1 .2-.8 1.5 1.5 0 0 0-.9-1zm-1.2 7.8zm-.2-9.9zm0 0zM9.1 30.8a.3.3 0 0 0 0-.2l-.2-.2-.2.2-.3.6c0 .3-.3.6-.3.9v.2h.1zm96.3 24.8h.1a1.7 1.7 0 0 0 .2-1.2.5.5 0 0 1 .2-.5h.1v-.2l-.2-.2h-.1c-.1.1-.2.3-.3.3s-.1.1-.1.3v.3a2.2 2.2 0 0 0 .1 1.2zM13.2 90.1c-.1 0 0 .2 0 .3l.8.8h.1c-.2-.3-.3-.6-.2-.7a.9.9 0 0 1-.5-.2zm.8.3zm92.3-35.7h.1a2 2 0 0 0 0-.6c-.3.1-.3.1-.3.6s.1.1.2 0z"></path><path d="M106.7 62a.6.6 0 0 0 .1-.5c0-.1-.1-.2-.1-.1h-.2v.2c0 .4.1.5.2.4zm.1-8.2h-.1v.6a1 1 0 0 0 .1-.6zM17.1 92.6h-.2v.2l.2.2h.2v-.2zm86.6-33.3c0-.1 0-.1-.1-.1zM9.9 86.5l.5.5-.4-.6z"></path><circle cx="10.5" cy="87.1" transform="rotate(-24.8 10.4 87.159)"></circle><path d="M9.7 30.1h-.1v.2-.2h.1zm83.2-6.6l-.2-.3h-.1zm-14.7 77.1zM5.9 32.2zm-.1.2a.3.3 0 0 0 .1-.2v.2zm1.9-4.9zM61.5 2.4zm42.8 58.2v.1-.1zM16.4 92.5h-.1c.1.1.2 0 .1-.1zm.2.7h.1l-.1-.1v.1zm73.9-71.3zm15.2 34.4zM14.6 91.7zm92.1-37zm-.8 11.4zM34.6 0z"></path></g></g><g id="SvgjsG1833" featureKey="nameLeftFeature-0" transform="matrix(0.3637743840405462,0,0,0.3637743840405462,75.83592169353243,203.46813044666206)" fill="url(#SvgjsLinearGradient1840)"><path d="M30.84 7.039999999999999 c0.36 0 1.16 0.12 1.16 1.36 l0 3.12 c0 1.32 -0.8 1.44 -1.16 1.44 l-10.28 0 l0 25.68 c0 1.24 -0.76 1.36 -1.12 1.36 l-3.68 0 c-0.32 0 -1.12 -0.12 -1.12 -1.36 l0 -25.68 l-10.28 0 c-0.36 0 -1.16 -0.12 -1.16 -1.44 l0 -3.12 c0 -1.24 0.8 -1.36 1.16 -1.36 l26.48 0 z M68.769 9.96 c0.8 1 1.36 2.32 1.72 3.92 c0.32 1.56 0.52 3.48 0.52 5.68 l0 7.92 c0 2.24 -0.2 4.16 -0.52 5.72 c-0.36 1.6 -0.92 2.92 -1.72 3.96 c-0.8 1 -1.84 1.76 -3.12 2.2 c-1.24 0.44 -2.76 0.68 -4.52 0.68 l-9.76 0 c-1.76 0 -3.28 -0.24 -4.48 -0.68 c-1.28 -0.44 -2.32 -1.2 -3.12 -2.24 c-0.76 -1 -1.36 -2.32 -1.72 -3.92 c-0.36 -1.56 -0.52 -3.48 -0.52 -5.72 l0 -7.92 c0 -2.24 0.16 -4.12 0.52 -5.68 c0.36 -1.6 0.96 -2.92 1.72 -3.92 c0.8 -1 1.84 -1.76 3.12 -2.24 c1.24 -0.44 2.72 -0.68 4.48 -0.68 l9.76 0 c1.76 0 3.28 0.24 4.52 0.68 c1.28 0.48 2.32 1.24 3.12 2.24 z M65.049 18.88 c0 -1.16 -0.04 -2.16 -0.2 -2.96 c-0.12 -0.76 -0.36 -1.36 -0.68 -1.8 c-0.28 -0.4 -0.68 -0.68 -1.2 -0.88 c-0.52 -0.16 -1.2 -0.28 -2.04 -0.28 l-9.36 0 c-0.84 0 -1.52 0.12 -2.04 0.28 c-0.52 0.2 -0.92 0.48 -1.2 0.88 c-0.32 0.44 -0.52 1.04 -0.68 1.8 c-0.12 0.8 -0.2 1.8 -0.2 2.96 l0 9.32 c0 1.16 0.08 2.16 0.2 2.96 c0.16 0.72 0.36 1.36 0.68 1.76 c0.28 0.44 0.68 0.72 1.2 0.88 c0.52 0.2 1.2 0.28 2.04 0.28 l9.36 0 c0.84 0 1.52 -0.08 2.04 -0.28 c0.52 -0.16 0.92 -0.44 1.2 -0.88 c0.32 -0.4 0.56 -1.04 0.68 -1.76 c0.16 -0.8 0.2 -1.8 0.2 -2.96 l0 -9.32 z M108.57799999999999 38.28 c0.16 0.24 0.2 0.56 0.16 0.96 c-0.08 0.48 -0.44 0.8 -0.92 0.8 l-4.4 0 c-0.36 0 -0.64 -0.08 -0.84 -0.24 c-0.16 -0.12 -0.28 -0.32 -0.44 -0.56 l-7.24 -12.84 l-8.44 0 l0 12.24 c0 1.24 -0.76 1.4 -1.12 1.4 l-3.64 0 c-0.36 0 -1.16 -0.16 -1.16 -1.4 l0 -16.8 c0 -1.24 0.8 -1.36 1.16 -1.36 l17.4 0 c1.04 0 1.72 -0.28 2.12 -0.88 c0.44 -0.6 0.64 -1.56 0.64 -2.88 s-0.2 -2.28 -0.64 -2.88 c-0.4 -0.6 -1.08 -0.88 -2.12 -0.88 l-17.4 0 c-0.36 0 -1.16 -0.12 -1.16 -1.36 l0 -3.16 c0 -1.28 0.8 -1.4 1.16 -1.4 l18.44 0 c2.72 0 4.72 0.84 5.92 2.56 c1.08 1.64 1.68 3.96 1.76 7 l0 0.24 c-0.08 3.08 -0.68 5.4 -1.76 7 c-1 1.36 -2.52 2.2 -4.48 2.44 z M146.347 38.28 c0.16 0.24 0.2 0.56 0.16 0.96 c-0.08 0.48 -0.44 0.8 -0.92 0.8 l-4.4 0 c-0.36 0 -0.64 -0.08 -0.84 -0.24 c-0.16 -0.12 -0.28 -0.32 -0.44 -0.56 l-7.24 -12.84 l-8.44 0 l0 12.24 c0 1.24 -0.76 1.4 -1.12 1.4 l-3.64 0 c-0.36 0 -1.16 -0.16 -1.16 -1.4 l0 -16.8 c0 -1.24 0.8 -1.36 1.16 -1.36 l17.4 0 c1.04 0 1.72 -0.28 2.12 -0.88 c0.44 -0.6 0.64 -1.56 0.64 -2.88 s-0.2 -2.28 -0.64 -2.88 c-0.4 -0.6 -1.08 -0.88 -2.12 -0.88 l-17.4 0 c-0.36 0 -1.16 -0.12 -1.16 -1.36 l0 -3.16 c0 -1.28 0.8 -1.4 1.16 -1.4 l18.44 0 c2.72 0 4.72 0.84 5.92 2.56 c1.08 1.64 1.68 3.96 1.76 7 l0 0.24 c-0.08 3.08 -0.68 5.4 -1.76 7 c-1 1.36 -2.52 2.2 -4.48 2.44 z M180.116 32.84 c0.36 0 1.16 0.12 1.16 1.36 l0 4.4 c0 1.24 -0.8 1.36 -1.16 1.36 l-14.2 0 c-1.76 0 -3.24 -0.2 -4.48 -0.68 c-1.28 -0.44 -2.32 -1.16 -3.12 -2.2 c-0.76 -1 -1.36 -2.32 -1.72 -3.92 c-0.28 -1.32 -0.48 -2.92 -0.52 -4.8 l0 -0.2 l0.08 -5.04 c0.08 -0.36 0.24 -0.68 0.44 -1 c0.56 -1 1.56 -1.6 2.72 -1.68 l20.64 -0.04 c0.32 0 1.12 0.12 1.12 1.36 l0 3.16 c0 1.24 -0.8 1.4 -1.12 1.4 l-17.88 0 c-0.04 0 -0.08 2.88 -0.08 2.88 l0.08 0.68 c0.12 0.76 0.36 1.36 0.68 1.8 c0.32 0.4 0.68 0.68 1.2 0.88 c0.56 0.16 1.24 0.28 2.08 0.28 l14.08 0 z M180.156 6.960000000000001 c0.32 0 1.12 0.16 1.12 1.4 l0 3.16 c0 1.24 -0.8 1.4 -1.12 1.4 l-23 -0.04 c-0.32 0 -1.08 -0.12 -1.08 -1.36 l0 -3.12 c0 -1.28 0.76 -1.44 1.08 -1.44 l23 0 z M210.12500000000003 20.32 c2.08 0 3.68 0.76 4.76 2.2 c1.04 1.44 1.56 3.48 1.56 6.08 l0 3.52 c0 2.32 -0.52 4.2 -1.52 5.64 c-1.04 1.48 -2.68 2.24 -4.88 2.24 l-18.04 0 c-0.36 0 -1.16 -0.12 -1.16 -1.36 l0 -3.2 c0 -1.24 0.8 -1.36 1.16 -1.36 l17.08 0 c0.68 0 0.92 -0.28 1.08 -0.52 c0.24 -0.4 0.36 -0.96 0.36 -1.68 l0 -3.44 c0 -1.96 -0.8 -2.2 -1.4 -2.2 l-12 0 c-1.68 0 -3.52 -0.24 -4.76 -1.88 c-1 -1.4 -1.56 -3.64 -1.56 -6.4 l0 -3.04 c0 -2.32 0.52 -4.24 1.56 -5.68 c1.04 -1.48 2.64 -2.2 4.84 -2.2 l17.24 0 c0.32 0 1.12 0.12 1.12 1.36 l0 3.2 c0 1.24 -0.8 1.36 -1.12 1.36 l-16.28 0 c-0.68 0 -0.92 0.28 -1.08 0.52 c-0.2 0.4 -0.32 0.96 -0.32 1.68 l0 2.96 c0 1.96 0.76 2.2 1.36 2.2 l12 0 z"></path></g><g id="SvgjsG1834" featureKey="inlineSymbolFeature-0" transform="matrix(-0.11980411018956694,0,0,0.11980411018956694,248.72745233556452,198)" fill="#f0d524"><g xmlns="http://www.w3.org/2000/svg">    <polygon points="184.8,138.4 180.3,143.9 174.8,138.9 139.6,106.3 10.4,226 0,226 139.6,96.6  "></polygon>    <polygon points="361.2,91.7 356.5,95 350.5,87.6 350.3,87.7 287.8,9.7 181.6,142.3 180.3,143.9 175.9,139.9 287.8,0  "></polygon>    <polygon points="615.4,226 603.1,226 396.9,63.4 360,92.5 356.5,95 351.9,89.3 396.9,53.8  "></polygon>    <polygon points="129,188.2 113,173.9 95.9,189.1 95.3,173.4 83.7,189 83.5,179.5 62.5,188.9 139.1,114 139.1,114 139.1,169.2    139.1,169.1  "></polygon>    <polygon points="268.5,172.4 252.9,144.8 243.3,161.8 221,131.4 198.6,161.8 183.5,147.8 287.4,19.7 287.4,19.7 287.4,130.7  "></polygon>    <polygon points="391.7,139 359.3,98.9 396.9,68.9 397,69 397,121.6 396.9,121.5  "></polygon></g></g><g id="SvgjsG1835" featureKey="nameRightFeature-0" transform="matrix(0.3598581052285437,0,0,0.3598581052285437,259.3237754304737,203.62493653981036)" fill="url(#SvgjsLinearGradient1843)"><path d="M51.329 7.039999999999999 c0.32 0 1.12 0.16 1.12 1.4 l0 3.08 c0 1.28 -0.8 1.44 -1.12 1.44 l-14.36 0 c-0.84 0 -1.56 0.08 -2.08 0.28 c-0.52 0.16 -0.88 0.44 -1.2 0.88 s-0.52 1 -0.68 1.76 c-0.12 0.76 -0.2 1.76 -0.2 2.96 l0 9.32 c0 1.2 0.08 2.2 0.2 3 c0.16 0.76 0.36 1.36 0.68 1.76 c0.32 0.44 0.68 0.72 1.2 0.88 c0.52 0.2 1.24 0.28 2.08 0.28 l14.36 0 c0.32 0 1.12 0.16 1.12 1.4 l0 3.16 c0 1.24 -0.8 1.4 -1.12 1.4 l-14.56 0 c-1.76 0 -3.28 -0.24 -4.52 -0.68 s-2.28 -1.2 -3.08 -2.2 c-0.8 -1.04 -1.4 -2.36 -1.76 -3.92 c-0.36 -1.6 -0.52 -3.52 -0.52 -5.76 l0 -7.92 c0 -2.2 0.16 -4.12 0.52 -5.68 c0.36 -1.6 0.96 -2.92 1.76 -3.92 c0.76 -1 1.8 -1.76 3.08 -2.24 c1.24 -0.44 2.76 -0.68 4.52 -0.68 l14.56 0 z M83.418 10.760000000000002 l11.24 27.72 c0.16 0.36 0.2 0.72 0.12 0.96 c-0.08 0.2 -0.24 0.6 -0.88 0.6 l-4.28 0 c-0.56 0 -0.96 -0.32 -1.16 -0.88 l-9.92 -24.76 l-0.04 -0.08 l-0.16 0 s-0.04 0.04 -0.08 0.12 l-5.12 12.96 l4.96 0 c0.52 0 0.96 0.32 1.16 0.8 l1.44 3.56 c0.12 0.4 0.08 0.84 -0.16 1.16 c-0.2 0.36 -0.6 0.56 -1.04 0.56 l-8.76 0 l-2.28 5.72 c-0.2 0.52 -0.6 0.84 -1.12 0.84 l-4.4 0 c-0.64 0 -0.84 -0.36 -0.88 -0.6 c-0.08 -0.24 -0.04 -0.6 0.08 -0.96 l11.16 -27.72 c0.56 -1.44 1.16 -2.4 1.76 -2.92 c0.16 -0.12 0.36 -0.28 0.6 -0.4 c0.8 -0.56 1.76 -0.84 2.76 -0.84 c2.2 0 4.12 1.48 4.76 3.56 z M123.987 7.039999999999999 c2.72 0 4.68 0.84 5.88 2.56 c1.16 1.6 1.72 3.92 1.76 7 c0 3.16 -0.56 5.56 -1.76 7.24 s-3.16 2.52 -5.88 2.52 l-13.68 0.04 l0 12.24 c0 1.24 -0.8 1.4 -1.12 1.4 l-3.68 0 c-0.32 0 -1.12 -0.16 -1.12 -1.4 l0 -16.8 c0 -1.24 0.8 -1.36 1.12 -1.36 l17.44 0 c1 0 1.72 -0.28 2.12 -0.88 c0.44 -0.6 0.64 -1.56 0.64 -2.88 s-0.2 -2.28 -0.64 -2.88 c-0.4 -0.6 -1.12 -0.88 -2.12 -0.88 l-17.44 0 c-0.32 0 -1.12 -0.12 -1.12 -1.36 l0 -3.16 c0 -1.28 0.8 -1.4 1.12 -1.4 l18.48 0 z M145.956 7.039999999999999 c0.32 0 1.12 0.16 1.12 1.4 l0 30.2 c0 1.24 -0.8 1.4 -1.12 1.4 l-3.68 0 c-0.32 0 -1.12 -0.16 -1.12 -1.4 l0 -30.2 c0 -1.24 0.8 -1.4 1.12 -1.4 l3.68 0 z M184.245 7.039999999999999 c0.36 0 1.16 0.12 1.16 1.36 l0 3.12 c0 1.32 -0.8 1.44 -1.16 1.44 l-10.28 0 l0 25.68 c0 1.24 -0.76 1.36 -1.12 1.36 l-3.68 0 c-0.32 0 -1.12 -0.12 -1.12 -1.36 l0 -25.68 l-10.28 0 c-0.36 0 -1.16 -0.12 -1.16 -1.44 l0 -3.12 c0 -1.24 0.8 -1.36 1.16 -1.36 l26.48 0 z M210.774 10.760000000000002 l11.24 27.72 c0.16 0.36 0.2 0.72 0.12 0.96 c-0.08 0.2 -0.24 0.6 -0.88 0.6 l-4.28 0 c-0.56 0 -0.96 -0.32 -1.16 -0.88 l-9.92 -24.76 l-0.04 -0.08 l-0.16 0 s-0.04 0.04 -0.08 0.12 l-5.12 12.96 l4.96 0 c0.52 0 0.96 0.32 1.16 0.8 l1.44 3.56 c0.12 0.4 0.08 0.84 -0.16 1.16 c-0.2 0.36 -0.6 0.56 -1.04 0.56 l-8.76 0 l-2.28 5.72 c-0.2 0.52 -0.6 0.84 -1.12 0.84 l-4.4 0 c-0.64 0 -0.84 -0.36 -0.88 -0.6 c-0.08 -0.24 -0.04 -0.6 0.08 -0.96 l11.16 -27.72 c0.56 -1.44 1.16 -2.4 1.76 -2.92 c0.16 -0.12 0.36 -0.28 0.6 -0.4 c0.8 -0.56 1.76 -0.84 2.76 -0.84 c2.2 0 4.12 1.48 4.76 3.56 z M254.823 34.08 c0.36 0 1.12 0.16 1.12 1.4 l0 3.16 c0 1.24 -0.76 1.4 -1.12 1.4 l-13.2 0 c-1.76 0 -3.28 -0.24 -4.48 -0.68 c-1.28 -0.44 -2.32 -1.2 -3.12 -2.24 c-0.8 -1 -1.36 -2.32 -1.72 -3.92 c-0.36 -1.56 -0.56 -3.48 -0.56 -5.72 l0 -19.04 c0 -1.28 0.8 -1.4 1.16 -1.4 l3.68 0 c0.32 0 1.12 0.12 1.12 1.4 l0 19.72 c0 1.2 0.04 2.2 0.2 3 c0.12 0.72 0.36 1.32 0.68 1.76 c0.28 0.44 0.68 0.72 1.16 0.88 c0.56 0.2 1.24 0.28 2.08 0.28 l13 0 z"></path></g>
			</g>
		</svg>
	